# xmcd CD database file
#
# Track frame offsets:
#	150
#	30210
#	55230
#	85865
#	114410
#	145000
#
# Disc length: 2281 seconds
#
# Revision: 0
# Processed by: cddbd v1.4PL0 Copyright (c) Steve Scherf et al.
# Submitted via: CDex 1.50
#
DISCID=3f08e706
DTITLE=Bob James - Heads
DYEAR=1977
DGENRE=Jazz
TTITLE0=Heads
TTITLE1=We're All Alone
TTITLE2=I'm In You
TTITLE3=Night Crawler
TTITLE4=You Are So Beautifull
TTITLE5=One Loving Night
EXTD=YEAR: 1977
EXTT0=
EXTT1=
EXTT2=
EXTT3=
EXTT4=
EXTT5=
PLAYORDER=
